<!-- <svg width="36" height="36" viewBox="0 0 36 36" fill="none" xmlns="http://www.w3.org/2000/svg">
  <path d="M1 20C1 26.6274 6.37258 32 13 32H29V4H1V20Z" fill="#0A0A0A" />
  <path fill-rule="evenodd" clip-rule="evenodd"
    d="M11.5 10.5V21.5L22.5 21.5V25.5H11.5C9.29086 25.5 7.5 23.7091 7.5 21.5V10.5H11.5ZM22.5 10.5H18.5V15.5C18.5 16.6046 19.3954 17.5 20.5 17.5C21.6046 17.5 22.5 16.6046 22.5 15.5V10.5Z"
    fill="white" />
</svg> -->

<svg xmlns="http://www.w3.org/2000/svg" fill="none" viewBox="0 0 24 24" stroke-width="1.5" stroke="currentColor" class="size-6">
  <path stroke-linecap="round" stroke-linejoin="round" d="M13.19 8.688a4.5 4.5 0 0 1 1.242 7.244l-4.5 4.5a4.5 4.5 0 0 1-6.364-6.364l1.757-1.757m13.35-.622 1.757-1.757a4.5 4.5 0 0 0-6.364-6.364l-4.5 4.5a4.5 4.5 0 0 0 1.242 7.244" />
</svg>

