<svg width="50" height="50" viewBox="0 0 50 50" fill="none" xmlns="http://www.w3.org/2000/svg">
<path fill-rule="evenodd" clip-rule="evenodd" d="M25 50C38.8071 50 50 38.8071 50 25C50 11.1929 38.8071 0 25 0C11.1929 0 0 11.1929 0 25C0 38.8071 11.1929 50 25 50ZM7.28683 18.8357C8.45445 15.48 10.5487 12.5583 13.2631 10.3767C14.1003 11.6552 15.5453 12.4997 17.1875 12.4997C19.7764 12.4997 21.875 14.5984 21.875 17.1872V18.7497C21.875 22.2015 24.6733 24.9997 28.125 24.9997C31.5768 24.9997 34.375 22.2015 34.375 18.7497C34.375 15.8119 36.4021 13.3474 39.1338 12.6787C42.0087 15.9738 43.75 20.2834 43.75 24.9998C43.75 26.0647 43.6613 27.1088 43.4907 28.1253H40.6249C37.1731 28.1253 34.3749 30.9235 34.3749 34.3753V41.2414C31.6171 42.8367 28.4149 43.7498 24.9997 43.7498V37.5C24.9997 34.0482 22.2015 31.25 18.7497 31.25C15.298 31.25 12.4997 28.4518 12.4997 25C12.4997 21.9015 10.245 19.3297 7.28683 18.8357Z" fill="#C5013D"/>
</svg>
