<svg width="51" height="50" viewBox="0 0 51 50" fill="none" xmlns="http://www.w3.org/2000/svg">
<path fill-rule="evenodd" clip-rule="evenodd" d="M16.1452 0C14.8839 0 13.7469 0.761382 13.2642 1.92911C12.7816 3.09685 13.0484 4.44097 13.9402 5.33471L16.1452 7.54442V19.2862C16.1452 20.115 15.8166 20.9098 15.2318 21.4959L2.75872 33.9959C-3.13449 39.9018 1.03931 50 9.37359 50H41.6264C49.9607 50 54.1345 39.9018 48.2413 33.9959L35.7682 21.4959C35.1834 20.9098 34.8548 20.115 34.8548 19.2862V7.54442L37.0598 5.33471C37.9516 4.44097 38.2184 3.09685 37.7357 1.92911C37.2531 0.761382 36.1161 0 34.8548 0H16.1452ZM22.3817 19.2862V6.25H28.6183V19.2862C28.6183 21.7726 29.6039 24.1571 31.3582 25.9153L34.5624 29.1264C32.3271 28.6053 29.9835 28.7107 27.792 29.4428L26.3259 29.9326C23.7656 30.7879 20.9975 30.7879 18.4372 29.9326L16.6833 29.3467C16.5646 29.307 16.4452 29.2711 16.3253 29.2389L19.6418 25.9153C21.3961 24.1571 22.3817 21.7726 22.3817 19.2862Z" fill="#C5013D"/>
</svg>
