<svg width="44" height="50" viewBox="0 0 44 50" fill="none" xmlns="http://www.w3.org/2000/svg">
<path d="M25.1429 46.875C25.1429 47.9581 25.7069 48.9639 26.6334 49.5333C27.56 50.1027 28.717 50.1544 29.6912 49.6701L42.2627 43.4201C43.3274 42.8907 44 41.8087 44 40.625V22.6127C44 21.5297 43.436 20.5238 42.5094 19.9544C41.5829 19.385 40.4259 19.3333 39.4516 19.8176L26.8802 26.0676C25.8154 26.597 25.1429 27.6791 25.1429 28.8627V46.875Z" fill="#C5013D"/>
<path d="M38.3779 13.3637C39.4426 12.8344 40.1152 11.7523 40.1152 10.5686C40.1152 9.38498 39.4426 8.30291 38.3779 7.77356L23.4055 0.329915C22.5207 -0.109972 21.4793 -0.109972 20.5945 0.329915L5.62211 7.77356C4.55736 8.30291 3.88478 9.38498 3.88478 10.5686C3.88478 11.7523 4.55736 12.8344 5.62211 13.3637L20.5945 20.8074C21.4793 21.2473 22.5207 21.2473 23.4055 20.8074L38.3779 13.3637Z" fill="#C5013D"/>
<path d="M4.54839 19.8176C3.57414 19.3333 2.41713 19.385 1.49056 19.9544C0.563993 20.5238 0 21.5297 0 22.6127V40.625C0 41.8087 0.672579 42.8907 1.73733 43.4201L14.3088 49.6701C15.283 50.1544 16.44 50.1027 17.3666 49.5333C18.2931 48.9639 18.8571 47.9581 18.8571 46.875V28.8627C18.8571 27.6791 18.1846 26.597 17.1198 26.0676L4.54839 19.8176Z" fill="#C5013D"/>
</svg>
