<svg width="50" height="50" viewBox="0 0 50 50" fill="#000000" xmlns="http://www.w3.org/2000/svg">
<path d="M33.0806 8.08058C35.5213 5.6398 39.4786 5.6398 41.9194 8.08058C44.3602 10.5214 44.3602 14.4786 41.9194 16.9194L32.5444 26.2944C30.1036 28.7352 26.1463 28.7352 23.7056 26.2944C22.4852 25.074 20.5065 25.074 19.2861 26.2944C18.0657 27.5148 18.0657 29.4934 19.2861 30.7138C24.1677 35.5954 32.0823 35.5954 36.9638 30.7138L46.3388 21.3388C51.2204 16.4573 51.2204 8.54272 46.3388 3.66116C41.4573 -1.22039 33.5427 -1.22039 28.6611 3.66116L23.9736 8.34866C22.7532 9.56905 22.7532 11.5477 23.9736 12.7681C25.194 13.9885 27.1727 13.9885 28.3931 12.7681L33.0806 8.08058Z" fill="#000000"/>
<path d="M17.4556 23.7056C19.8964 21.2648 23.8537 21.2648 26.2944 23.7056C27.5148 24.926 29.4935 24.926 30.7139 23.7056C31.9343 22.4852 31.9343 20.5066 30.7139 19.2862C25.8323 14.4046 17.9177 14.4046 13.0362 19.2862L3.66117 28.6612C-1.22039 33.5427 -1.22039 41.4573 3.66117 46.3388C8.54273 51.2204 16.4573 51.2204 21.3389 46.3388L26.0264 41.6513C27.2468 40.4309 27.2468 38.4523 26.0264 37.2319C24.806 36.0115 22.8273 36.0115 21.6069 37.2319L16.9194 41.9194C14.4787 44.3602 10.5214 44.3602 8.08059 41.9194C5.63981 39.4786 5.63981 35.5214 8.08059 33.0806L17.4556 23.7056Z" fill="#000000"/>
</svg>
