<!-- <svg width="24" height="24" viewBox="0 0 24 24" fill="none" xmlns="http://www.w3.org/2000/svg">
<path d="M21 6L15.7071 11.2929C15.3166 11.6834 14.6834 11.6834 14.2929 11.2929L12.7071 9.70711C12.3166 9.31658 11.6834 9.31658 11.2929 9.70711L7 14" stroke="#222222" stroke-linecap="round" stroke-linejoin="round"/>
<path d="M3 3V17.8C3 18.9201 3 19.4802 3.21799 19.908C3.40973 20.2843 3.71569 20.5903 4.09202 20.782C4.51984 21 5.07989 21 6.2 21H21" stroke="#222222" stroke-linecap="round"/>
</svg>

 -->


<svg xmlns="http://www.w3.org/2000/svg" fill="none" viewBox="0 0 24 24" stroke-width="1.5" stroke="currentColor">

  <path stroke-linecap="round" fill="white" stroke-linejoin="round" d="M3.75 3.75v4.5m0-4.5h4.5m-4.5 0L9 9M3.75 20.25v-4.5m0 4.5h4.5m-4.5 0L9 15M20.25 3.75h-4.5m4.5 0v4.5m0-4.5L15 9m5.25 11.25h-4.5m4.5 0v-4.5m0 4.5L15 15" />
</svg> 
