<!-- <svg width="36" height="36" viewBox="0 0 36 36" fill="none" xmlns="http://www.w3.org/2000/svg">
  <circle cx="15" cy="18" r="15" fill="#0A0A0A" />
  <path d="M8.5 10H19.5L21.5 12L19.5 14H8.5V10Z" fill="white" />
  <path d="M8.5 16H15.5L17.5 18L15.5 20H8.5V16Z" fill="white" />
  <rect x="8.5" y="22" width="4" height="4" fill="white" />
</svg> -->

<!-- <svg xmlns="http://www.w3.org/2000/svg" fill="none" width="36" height="36" viewBox="0 0 36 36">
  <circle cx="15" cy="18" r="15" fill="#0A0A0A" />
  <path fill="white" d="M3.75 3.75v4.5m0-4.5h4.5m-4.5 0L9 9M3.75 20.25v-4.5m0 4.5h4.5m-4.5 0L9 15M20.25 3.75h-4.5m4.5 0v4.5m0-4.5L15 9m5.25 11.25h-4.5m4.5 0v-4.5m0 4.5L15 15" />
  <rect x="8.5" y="22" width="4" height="4" fill="white" />
</svg> -->


<svg width="20" height="20" viewBox="0 0 20 20" fill="none" xmlns="http://www.w3.org/2000/svg">
<path fill-rule="evenodd" clip-rule="evenodd" d="M12 1.58582L8 5.58582V18.4142L12 14.4142V1.58582Z" fill="#111827"/>
<path fill-rule="evenodd" clip-rule="evenodd" d="M3.70711 3.29292C3.42111 3.00692 2.99099 2.92137 2.61732 3.07615C2.24364 3.23093 2 3.59557 2 4.00003V14C2 14.2652 2.10536 14.5196 2.29289 14.7071L6 18.4142V5.58582L3.70711 3.29292Z" fill="#111827"/>
<path fill-rule="evenodd" clip-rule="evenodd" d="M17.7071 5.29292L14 1.58582V14.4142L16.2929 16.7071C16.5789 16.9931 17.009 17.0787 17.3827 16.9239C17.7564 16.7691 18 16.4045 18 16V6.00003C18 5.73481 17.8946 5.48046 17.7071 5.29292Z" fill="#111827"/>
</svg>

