<!-- <svg width="36" height="36" viewBox="0 0 36 36" fill="none" xmlns="http://www.w3.org/2000/svg">
  <path fill-rule="evenodd" clip-rule="evenodd"
    d="M2.88146 6.03314C6.38837 3.0447 11.9315 3.58464 15 7C18.0685 3.58464 23.6116 3.0447 27.1185 6.03314C30.6254 9.02158 30.9808 14.2129 27.9123 17.6282L16.4877 30.344C15.6931 31.2285 14.3069 31.2285 13.5123 30.344L2.08773 17.6282C-0.98081 14.2129 -0.625447 9.02158 2.88146 6.03314Z"
    fill="#0A0A0A" />
  <path d="M11 17V17.5" stroke="white" stroke-width="3" stroke-linecap="round" stroke-linejoin="round" />
  <path d="M19 17V17.5" stroke="white" stroke-width="3" stroke-linecap="round" stroke-linejoin="round" />
  <path d="M12 23C12 23 12.75 22 15 22C17.25 22 18 23 18 23" stroke="white" stroke-linecap="round"
    stroke-linejoin="round" />
</svg> -->

<!-- <svg xmlns="http://www.w3.org/2000/svg" fill="none" viewBox="0 0 24 24" stroke-width="1.5" stroke="currentColor" class="size-6">
  <path stroke-linecap="round" stroke-linejoin="round" d="M9 12.75 11.25 15 15 9.75M21 12c0 1.268-.63 2.39-1.593 3.068a3.745 3.745 0 0 1-1.043 3.296 3.745 3.745 0 0 1-3.296 1.043A3.745 3.745 0 0 1 12 21c-1.268 0-2.39-.63-3.068-1.593a3.746 3.746 0 0 1-3.296-1.043 3.745 3.745 0 0 1-1.043-3.296A3.745 3.745 0 0 1 3 12c0-1.268.63-2.39 1.593-3.068a3.745 3.745 0 0 1 1.043-3.296 3.746 3.746 0 0 1 3.296-1.043A3.746 3.746 0 0 1 12 3c1.268 0 2.39.63 3.068 1.593a3.746 3.746 0 0 1 3.296 1.043 3.746 3.746 0 0 1 1.043 3.296A3.745 3.745 0 0 1 21 12Z" />
</svg>
 -->

<svg width="20" height="20" viewBox="0 0 20 20" fill="none" xmlns="http://www.w3.org/2000/svg">
<path d="M15 8C16.6569 8 18 6.65685 18 5C18 3.34315 16.6569 2 15 2C13.3431 2 12 3.34315 12 5C12 5.12548 12.0077 5.24917 12.0227 5.37061L7.08259 7.84064C6.54303 7.32015 5.8089 7 5 7C3.34315 7 2 8.34315 2 10C2 11.6569 3.34315 13 5 13C5.80892 13 6.54306 12.6798 7.08263 12.1593L12.0227 14.6293C12.0077 14.7508 12 14.8745 12 15C12 16.6569 13.3431 18 15 18C16.6569 18 18 16.6569 18 15C18 13.3431 16.6569 12 15 12C14.1911 12 13.457 12.3201 12.9174 12.8406L7.97733 10.3706C7.9923 10.2492 8 10.1255 8 10C8 9.8745 7.99229 9.7508 7.97733 9.62934L12.9174 7.15932C13.4569 7.67984 14.1911 8 15 8Z" fill="#111827"/>
</svg>
