<svg width="20" height="20" viewBox="0 0 20 20" fill="none" xmlns="http://www.w3.org/2000/svg">
<path d="M10 1.94446C12.0847 3.81033 14.8257 4.95833 17.834 4.99915C17.9432 5.64984 18 6.31839 18 7.00012C18 12.2249 14.6607 16.6702 10 18.3175C5.33926 16.6702 2.00004 12.2249 2 7.00012C2 6.31839 2.0568 5.64984 2.16602 4.99915C5.17428 4.95833 7.91528 3.81033 10 1.94446ZM13.707 7.29309C13.3165 6.90257 12.6835 6.90257 12.293 7.29309L9 10.5861L7.70703 9.29309L7.63086 9.22473C7.23809 8.90438 6.65908 8.92697 6.29297 9.29309C5.92691 9.65921 5.90428 10.2382 6.22461 10.631L6.29297 10.7072L8.29297 12.7072L8.36914 12.7755C8.76189 13.0958 9.34093 13.0732 9.70703 12.7072L13.707 8.70715C14.0975 8.31665 14.0975 7.68362 13.707 7.29309Z" fill="#111827"/>
</svg>
