<svg width="28" height="28" viewBox="0 0 28 28" fill="none" xmlns="http://www.w3.org/2000/svg">
<g clip-path="url(#clip0_60_33297)">
<path d="M13.6367 25.2305C13.8828 25.2305 14.2344 25.0664 14.4922 24.9141C21.1016 20.6953 25.2852 15.7852 25.2852 10.793C25.2852 6.64453 22.4375 3.71484 18.7461 3.71484C16.4609 3.71484 14.7031 4.98047 13.6367 6.91406C12.5938 4.99219 10.8242 3.71484 8.52734 3.71484C4.84766 3.71484 2 6.64453 2 10.793C2 15.7852 6.18359 20.6953 12.793 24.9141C13.0391 25.0664 13.4023 25.2305 13.6367 25.2305Z" fill="black" fill-opacity="0.85"/>
<path d="M9.71094 15.668C9.71094 15.5391 9.76953 15.4336 9.86328 15.3164L14.7031 9.23438C15.0664 8.77734 15.6758 9.08203 15.4648 9.65625L13.8711 13.9336H16.8594C17.082 13.9336 17.2812 14.1094 17.2812 14.3203C17.2812 14.4375 17.2227 14.5664 17.1172 14.6719L12.2891 20.7539C11.9141 21.2109 11.3047 20.8945 11.5156 20.332L13.1211 16.043H10.1211C9.89844 16.043 9.71094 15.8789 9.71094 15.668Z" fill="white"/>
</g>
<defs>
<clipPath id="clip0_60_33297">
<rect width="23.2852" height="22.2305" fill="white" transform="translate(2 3)"/>
</clipPath>
</defs>
</svg>
