<svg width="33" height="28" viewBox="0 0 33 28" fill="none" xmlns="http://www.w3.org/2000/svg">
<g clip-path="url(#clip0_60_33212)">
<path d="M8.44922 19.4922H10.043C10.5352 19.4922 10.8516 19.2109 10.9688 18.7656L11.4375 16.832C11.7656 16.7148 12.082 16.5977 12.3633 16.4336L14.0625 17.4883C14.4492 17.7227 14.9062 17.6875 15.2344 17.3594L16.3594 16.2227C16.6758 15.8945 16.7344 15.4258 16.4883 15.0273L15.4453 13.3633C15.5859 13.0703 15.7266 12.7656 15.8203 12.4492L17.7539 11.9805C18.2227 11.875 18.4922 11.5469 18.4922 11.0664V9.48438C18.4922 9.01562 18.2227 8.67578 17.7539 8.57031L15.8438 8.08984C15.7266 7.73828 15.5859 7.43359 15.4688 7.17578L16.4883 5.47656C16.7227 5.06641 16.7227 4.63281 16.3828 4.30469L15.2344 3.17969C14.9062 2.875 14.4727 2.79297 14.0859 3.02734L12.3633 4.09375C12.0938 3.94141 11.7773 3.8125 11.4375 3.70703L10.9688 1.73828C10.8516 1.29297 10.5352 1.01172 10.043 1.01172H8.44922C7.95703 1.01172 7.62891 1.29297 7.52344 1.73828L7.05469 3.68359C6.72656 3.80078 6.39844 3.91797 6.11719 4.08203L4.40625 3.02734C4.01953 2.79297 3.58594 2.86328 3.25781 3.17969L2.10938 4.30469C1.76953 4.63281 1.76953 5.06641 2.00391 5.47656L3.02344 7.17578C2.90625 7.43359 2.76562 7.73828 2.64844 8.08984L0.726562 8.57031C0.269531 8.67578 0 9.01562 0 9.48438V11.0664C0 11.5469 0.269531 11.875 0.726562 11.9805L2.67188 12.4492C2.76562 12.7656 2.90625 13.0703 3.04688 13.3633L2.00391 15.0273C1.75781 15.4258 1.81641 15.8945 2.13281 16.2227L3.25781 17.3594C3.58594 17.6875 4.04297 17.7227 4.42969 17.4883L6.12891 16.4336C6.41016 16.5977 6.72656 16.7148 7.05469 16.832L7.52344 18.7656C7.62891 19.2109 7.95703 19.4922 8.44922 19.4922ZM9.24609 13.1992C7.62891 13.1992 6.29297 11.8633 6.29297 10.2344C6.29297 8.62891 7.62891 7.30469 9.24609 7.30469C10.8633 7.30469 12.1992 8.62891 12.1992 10.2344C12.1992 11.8633 10.8633 13.1992 9.24609 13.1992ZM23.7422 26.6992H25.0781C25.5117 26.6992 25.8047 26.4531 25.8867 26.0781L26.2734 24.4023C26.5781 24.2852 26.8477 24.1914 27.0938 24.0508L28.5586 24.9648C28.8867 25.1758 29.2734 25.1523 29.5664 24.8594L30.5039 23.9102C30.7969 23.6172 30.8438 23.207 30.6211 22.8789L29.7188 21.4258C29.8477 21.1797 29.9531 20.9102 30.0469 20.6406L31.7344 20.2422C32.1211 20.1602 32.3438 19.8672 32.3438 19.4453V18.1211C32.3438 17.6992 32.1211 17.4062 31.7344 17.3125L30.0586 16.9141C29.9531 16.6094 29.8477 16.3398 29.7305 16.1172L30.6211 14.6406C30.8438 14.2891 30.832 13.9258 30.5273 13.6328L29.5664 12.6953C29.2734 12.4258 28.8984 12.3555 28.5703 12.5547L27.0938 13.4805C26.8594 13.3633 26.5781 13.2344 26.2734 13.1523L25.8867 11.4414C25.8047 11.0664 25.5117 10.8086 25.0781 10.8086H23.7422C23.3203 10.8086 23.0273 11.0664 22.9336 11.4414L22.5352 13.1289C22.2539 13.2344 21.9609 13.3281 21.7148 13.4688L20.2383 12.5547C19.9219 12.3672 19.5469 12.4141 19.2539 12.6953L18.3047 13.6328C18 13.9258 17.9883 14.2891 18.1992 14.6406L19.0781 16.1172C18.9727 16.3398 18.8672 16.6094 18.7617 16.9141L17.0977 17.3125C16.6992 17.4062 16.4648 17.6992 16.4648 18.1211V19.4453C16.4648 19.8672 16.6992 20.1602 17.0977 20.2422L18.7852 20.6406C18.8672 20.9102 18.9727 21.1797 19.1016 21.4258L18.1992 22.8789C17.9766 23.207 18.0352 23.6172 18.3164 23.9102L19.2539 24.8594C19.5469 25.1523 19.9336 25.1758 20.2617 24.9648L21.7266 24.0508C21.9727 24.1914 22.2539 24.2852 22.5352 24.4023L22.9336 26.0781C23.0273 26.4531 23.3203 26.6992 23.7422 26.6992ZM24.4102 21.0977C23.1211 21.0977 22.0664 20.043 22.0664 18.7422C22.0664 17.4648 23.1211 16.4102 24.4102 16.4102C25.6992 16.4102 26.7539 17.4648 26.7539 18.7422C26.7539 20.043 25.6992 21.0977 24.4102 21.0977Z" fill="black" fill-opacity="0.85"/>
</g>
<defs>
<clipPath id="clip0_60_33212">
<rect width="32.3438" height="25.6992" fill="white" transform="translate(0 1)"/>
</clipPath>
</defs>
</svg>
