<!-- <svg width="24" height="24" viewBox="0 0 24 24" fill="none" xmlns="http://www.w3.org/2000/svg">
<path d="M12.773 3.70613L18.7577 5.30204C19.1954 5.41878 19.5 5.81523 19.5 6.26828V12.2889C19.5 14.295 18.4974 16.1684 16.8282 17.2812L12.5547 20.1302C12.2188 20.3541 11.7812 20.3541 11.4453 20.1302L7.1718 17.2812C5.50261 16.1684 4.5 14.295 4.5 12.2889V6.26828C4.5 5.81523 4.80458 5.41878 5.24234 5.30204L11.227 3.70613C11.7335 3.57107 12.2665 3.57107 12.773 3.70613Z" stroke="#222222" stroke-linecap="round"/>
<path d="M9.5 11.5L11.3232 13.3232C11.4209 13.4209 11.5791 13.4209 11.6768 13.3232L15 10" stroke="#222222" stroke-linecap="round"/>
</svg> -->

<svg width="28" height="28" viewBox="0 0 28 28" fill="none" xmlns="http://www.w3.org/2000/svg">
<g clip-path="url(#clip0_60_33315)">
<path d="M4 16.4609C4 20.7383 6.29688 22.3086 12.9531 26.0586C13.2578 26.2227 13.5508 26.293 13.7383 26.293C13.9258 26.293 14.2305 26.2227 14.5234 26.0586C21.1914 22.3203 23.4766 20.7383 23.4766 16.4609V7.49609C23.4766 6.26562 22.9492 5.87891 21.9531 5.45703C20.5703 4.88281 16.1055 3.27734 14.7227 2.79687C14.4062 2.69141 14.0664 2.62109 13.7383 2.62109C13.4102 2.62109 13.0703 2.71484 12.7656 2.79687C11.3828 3.19531 6.90625 4.89453 5.52344 5.45703C4.53906 5.86719 4 6.26562 4 7.49609V16.4609ZM5.86328 16.0273V14.1406H13.7383V4.50781C13.8672 4.50781 14.0195 4.54297 14.207 4.61328C15.9766 5.31641 19.4102 6.55859 21.2266 7.17969C21.543 7.29688 21.6133 7.46094 21.6133 7.85938V14.1406H13.7383V24.1719C13.5508 24.1719 13.3633 24.1016 13.0117 23.8906C7.59766 20.6094 5.86328 19.6484 5.86328 16.0273Z" fill="black" fill-opacity="0.85"/>
</g>
<defs>
<clipPath id="clip0_60_33315">
<rect width="19.4766" height="24.293" fill="white" transform="translate(4 2)"/>
</clipPath>
</defs>
</svg>
